<svg xmlns="http://www.w3.org/2000/svg" width="6.8mm" height="6.8mm" viewBox="0 0 6.8 6.8">
<polygon points="3.4,0.0 3.8,0.0 4.3,0.1 4.7,0.2 5.1,0.4 5.4,0.7 5.8,1.0 6.1,1.3 6.3,1.7 6.5,2.1 6.7,2.5 6.8,2.9 6.8,3.4 6.8,3.8 6.7,4.2 6.6,4.7 6.4,5.1 6.1,5.4 5.8,5.8 5.5,6.1 5.1,6.3 4.8,6.5 4.3,6.7 3.9,6.8 3.5,6.8 3.0,6.8 2.6,6.7 2.1,6.6 1.7,6.4 1.4,6.1 1.0,5.8 0.7,5.5 0.5,5.1 0.3,4.7 0.1,4.3 0.0,3.9 0.0,3.4 0.0,3.0 0.1,2.6 0.3,2.1 0.5,1.7 0.7,1.4 1.0,1.0 1.3,0.7 1.7,0.5 2.1,0.3 2.5,0.1 2.9,0.0" fill="#cccccc" stroke="#000000" stroke-width="1"/>
<text x="5" y="15" font-size="12">8 Vis - 6.8x6.8mm</text>
</svg>