<svg xmlns="http://www.w3.org/2000/svg" width="380.0mm" height="950.0mm" viewBox="0 0 380.0 950.0">
<polygon points="0.0,0.0 380.0,0.0 380.0,950.0 0.0,950.0 0.0,900.0 300.0,900.0 305.2,899.7 310.4,898.6 315.3,897.0 320.0,894.6 324.4,891.7 328.3,888.3 331.7,884.4 334.6,880.0 337.0,875.3 338.6,870.4 339.7,865.2 340.0,860.0 340.0,90.0 339.7,84.8 338.6,79.6 336.9,74.7 334.6,70.0 331.7,65.6 328.3,61.7 324.3,58.3 320.0,55.4 315.3,53.0 310.3,51.4 305.2,50.3 300.0,50.0 0.0,50.0" fill="#cccccc" stroke="#000000" stroke-width="1"/>
<text x="5" y="15" font-size="12">Pied lit peigne partie droite - 380.0x950.0mm</text>
</svg>