<svg xmlns="http://www.w3.org/2000/svg" width="1031.9mm" height="844.6mm" viewBox="0 0 1031.9 844.6">
<polygon points="1011.1,661.1 1024.1,661.1 1031.9,720.6 90.1,844.6 0.0,160.5 0.0,147.5 3.4,134.9 9.9,123.6 19.1,114.3 30.4,107.8 43.0,104.4 56.1,104.4 68.7,107.8 80.0,114.3 89.2,123.6 95.8,134.9 99.1,147.5 174.8,722.5 178.2,735.1 184.8,746.4 194.0,755.6 205.3,762.2 217.9,765.6 230.9,765.6 243.6,762.2 254.9,755.6 264.1,746.4 270.6,735.1 274.0,722.5 274.0,709.5 198.3,134.4 198.3,121.4 201.7,108.8 208.2,97.4 217.4,88.2 228.7,81.7 241.3,78.3 254.4,78.3 267.0,81.7 278.3,88.2 287.5,97.4 294.1,108.8 297.4,121.4 373.1,696.4 376.5,709.0 383.0,720.3 392.3,729.5 403.6,736.1 416.2,739.4 429.2,739.4 441.8,736.1 453.1,729.5 462.4,720.3 468.9,709.0 472.3,696.4 472.3,683.3 396.6,108.3 396.6,95.3 400.0,82.6 406.5,71.3 415.7,62.1 427.0,55.6 439.6,52.2 452.7,52.2 465.3,55.6 476.6,62.1 485.8,71.3 492.3,82.6 495.7,95.3 571.4,670.3 574.8,682.9 581.3,694.2 590.6,703.4 601.9,710.0 614.5,713.3 627.5,713.3 640.1,710.0 651.4,703.4 660.7,694.2 667.2,682.9 670.6,670.3 670.6,657.2 594.9,82.2 594.9,69.2 598.2,56.5 604.8,45.2 614.0,36.0 625.3,29.5 637.9,26.1 651.0,26.1 663.6,29.5 674.9,36.0 684.1,45.2 690.6,56.5 694.0,69.2 769.7,644.2 773.1,656.8 779.6,668.1 788.9,677.3 800.2,683.9 812.8,687.2 825.8,687.2 838.4,683.9 849.7,677.3 859.0,668.1 865.5,656.8 868.9,644.2 868.9,631.1 793.2,56.1 793.2,43.0 796.5,30.4 803.1,19.1 812.3,9.9 823.6,3.4 836.2,0.0 849.3,0.0 861.9,3.4 873.2,9.9 882.4,19.1 888.9,30.4 892.3,43.0 968.0,618.1 971.4,630.7 977.9,642.0 987.1,651.2 998.4,657.8" fill="#cccccc" stroke="#000000" stroke-width="1"/>
<text x="5" y="15" font-size="12">Peigne mobile partie droite - 1031.9x844.6mm</text>
</svg>