<svg xmlns="http://www.w3.org/2000/svg" width="950.0mm" height="740.0mm" viewBox="0 0 950.0 740.0">
<polygon points="0.0,0.0 950.0,0.0 950.0,60.0 937.1,61.7 925.0,66.7 914.6,74.7 906.7,85.0 901.7,97.1 900.0,110.0 900.0,690.0 898.3,703.0 893.3,715.0 885.4,725.4 875.0,733.3 862.9,738.3 850.0,740.0 837.1,738.3 825.0,733.3 814.6,725.4 806.7,715.0 801.7,703.0 800.0,690.0 800.0,110.0 798.3,97.1 793.3,85.0 785.4,74.7 775.0,66.7 762.9,61.7 750.0,60.0 737.1,61.7 725.0,66.7 714.6,74.7 706.7,85.0 701.7,97.1 700.0,110.0 700.0,690.0 698.3,703.0 693.3,715.0 685.4,725.4 675.0,733.3 662.9,738.3 650.0,740.0 637.1,738.3 625.0,733.3 614.6,725.4 606.7,715.0 601.7,703.0 600.0,690.0 600.0,110.0 598.3,97.1 593.3,85.0 585.4,74.7 575.0,66.7 562.9,61.7 550.0,60.0 537.1,61.7 525.0,66.7 514.6,74.7 506.7,85.0 501.7,97.1 500.0,110.0 500.0,690.0 498.3,703.0 493.3,715.0 485.4,725.4 475.0,733.3 462.9,738.3 450.0,740.0 437.1,738.3 425.0,733.3 414.6,725.4 406.7,715.0 401.7,703.0 400.0,690.0 400.0,110.0 398.3,97.1 393.3,85.0 385.4,74.7 375.0,66.7 362.9,61.7 350.0,60.0 337.1,61.7 325.0,66.7 314.6,74.7 306.7,85.0 301.7,97.1 300.0,110.0 300.0,690.0 298.3,703.0 293.3,715.0 285.4,725.4 275.0,733.3 262.9,738.3 250.0,740.0 237.1,738.3 225.0,733.3 214.6,725.4 206.7,715.0 201.7,703.0 200.0,690.0 200.0,110.0 199.6,103.5 198.3,97.1 196.2,90.9 193.3,85.0 189.7,79.6 185.4,74.7 180.4,70.3 175.0,66.7 169.1,63.8 162.9,61.7 156.5,60.4 150.0,60.0 143.5,60.4 137.1,61.7 130.9,63.8 125.0,66.7 119.6,70.3 114.6,74.7 110.3,79.6 106.7,85.0 103.8,90.9 101.7,97.1 100.4,103.5 100.0,110.0 100.0,690.0 98.3,703.0 93.3,715.0 85.4,725.4 75.0,733.3 62.9,738.3 50.0,740.0 37.1,738.3 25.0,733.3 14.6,725.4 6.7,715.0 1.7,703.0 0.0,690.0" fill="#cccccc" stroke="#000000" stroke-width="1"/>
<text x="5" y="15" font-size="12">Peigne mobile partie gauche - 950.0x740.0mm</text>
</svg>