<svg xmlns="http://www.w3.org/2000/svg" width="380.0mm" height="950.0mm" viewBox="0 0 380.0 950.0">
<polygon points="0.0,0.0 380.0,0.0 380.0,50.0 80.0,50.0 74.8,50.3 69.7,51.4 64.7,53.0 60.0,55.4 55.7,58.3 51.7,61.7 48.3,65.6 45.4,70.0 43.1,74.7 41.4,79.6 40.3,84.8 40.0,90.0 40.0,860.0 40.3,865.2 41.4,870.4 43.0,875.3 45.4,880.0 48.3,884.4 51.7,888.3 55.6,891.7 60.0,894.6 64.7,897.0 69.6,898.6 74.8,899.7 80.0,900.0 380.0,900.0 380.0,950.0 0.0,950.0" fill="#cccccc" stroke="#000000" stroke-width="1"/>
<text x="5" y="15" font-size="12">Pied lit peigne partie gauche - 380.0x950.0mm</text>
</svg>