<svg xmlns="http://www.w3.org/2000/svg" width="73.4mm" height="399.8mm" viewBox="0 0 73.4 399.8">
<polygon points="10.0,0.0 15.2,0.0 20.4,0.7 25.5,2.0 30.3,4.0 34.8,6.7 39.0,9.8 42.7,13.5 45.9,17.7 48.5,22.2 50.5,27.1 51.8,32.1 52.5,37.3 73.4,356.6 73.4,361.8 72.8,367.0 71.4,372.1 69.4,376.9 66.8,381.5 63.6,385.6 59.9,389.3 55.7,392.5 51.2,395.1 46.4,397.1 41.3,398.5 36.1,399.1 26.2,399.8 0.0,0.7" fill="#cccccc" stroke="#000000" stroke-width="1"/>
<text x="5" y="15" font-size="12">Partie inférieur support table exterieur - 73.4x399.8mm</text>
</svg>