<svg xmlns="http://www.w3.org/2000/svg" width="900.0mm" height="400.0mm" viewBox="0 0 900.0 400.0">
<polygon points="40.0,0.0 860.0,0.0 865.2,0.3 870.4,1.4 875.3,3.0 880.0,5.4 884.4,8.3 888.3,11.7 891.7,15.6 894.6,20.0 897.0,24.7 898.6,29.6 899.7,34.8 900.0,40.0 900.0,360.0 899.7,365.2 898.6,370.4 897.0,375.3 894.6,380.0 891.7,384.4 888.3,388.3 884.4,391.7 880.0,394.6 875.3,397.0 870.4,398.6 865.2,399.7 860.0,400.0 40.0,400.0 34.8,399.7 29.6,398.6 24.7,397.0 20.0,394.6 15.6,391.7 11.7,388.3 8.3,384.4 5.4,380.0 3.0,375.3 1.4,370.4 0.3,365.2 0.0,360.0 0.0,40.0 0.3,34.8 1.4,29.6 3.0,24.7 5.4,20.0 8.3,15.6 11.7,11.7 15.6,8.3 20.0,5.4 24.7,3.0 29.6,1.4 34.8,0.3" fill="#cccccc" stroke="#000000" stroke-width="1"/>
<text x="5" y="15" font-size="12">Table extérieur - 900.0x400.0mm</text>
</svg>