<svg xmlns="http://www.w3.org/2000/svg" width="625.0mm" height="364.0mm" viewBox="0 0 625.0 364.0">
<polygon points="53.6,0.0 58.9,0.0 587.7,34.7 592.9,35.3 598.0,36.7 602.8,38.7 607.4,41.3 611.5,44.5 615.2,48.2 618.4,52.4 621.0,56.9 623.0,61.7 624.4,66.8 625.0,72.0 625.0,77.2 608.7,326.7 608.0,331.8 606.7,336.9 604.7,341.7 602.0,346.3 598.9,350.4 595.2,354.1 591.0,357.3 586.5,359.9 581.6,361.9 576.6,363.3 571.4,364.0 566.2,364.0 37.3,329.3 32.1,328.6 27.1,327.3 22.2,325.3 17.7,322.6 13.5,319.5 9.8,315.8 6.7,311.6 4.0,307.1 2.0,302.2 0.7,297.2 0.0,292.0 0.0,286.8 16.4,37.3 17.0,32.1 18.4,27.1 20.4,22.2 23.0,17.7 26.2,13.5 29.9,9.8 34.0,6.7 38.6,4.0 43.4,2.0 48.5,0.7" fill="#cccccc" stroke="#000000" stroke-width="1"/>
<text x="5" y="15" font-size="12">Portière point d'eau - 625.0x364.0mm</text>
</svg>