<svg xmlns="http://www.w3.org/2000/svg" width="370.0mm" height="250.0mm" viewBox="0 0 370.0 250.0">
<polygon points="30.0,0.0 340.0,0.0 343.9,0.3 347.8,1.0 351.5,2.3 355.0,4.0 358.3,6.2 361.2,8.8 363.8,11.7 366.0,15.0 367.7,18.5 369.0,22.2 369.7,26.1 370.0,30.0 370.0,220.0 369.7,223.9 369.0,227.8 367.7,231.5 366.0,235.0 363.8,238.3 361.2,241.2 358.3,243.8 355.0,246.0 351.5,247.7 347.8,249.0 343.9,249.7 340.0,250.0 30.0,250.0 26.1,249.7 22.2,249.0 18.5,247.7 15.0,246.0 11.7,243.8 8.8,241.2 6.2,238.3 4.0,235.0 2.3,231.5 1.0,227.8 0.3,223.9 0.0,220.0 0.0,30.0 0.3,26.1 1.0,22.2 2.3,18.5 4.0,15.0 6.2,11.7 8.8,8.8 11.7,6.2 15.0,4.0 18.5,2.3 22.2,1.0 26.1,0.3" fill="#cccccc" stroke="#000000" stroke-width="1"/>
<text x="5" y="15" font-size="12">Jericane eau grise - 370.0x250.0mm</text>
</svg>