<svg xmlns="http://www.w3.org/2000/svg" width="340.7mm" height="270.8mm" viewBox="0 0 340.7 270.8">
<polygon points="48.7,0.0 54.0,0.0 303.4,16.4 308.6,17.0 313.7,18.4 318.5,20.4 323.0,23.0 327.2,26.2 330.9,29.9 334.1,34.0 336.7,38.6 338.7,43.4 340.1,48.5 340.7,53.6 340.7,58.9 329.3,233.5 328.6,238.7 327.3,243.7 325.3,248.6 322.6,253.1 319.5,257.3 315.8,261.0 311.6,264.1 307.1,266.8 302.2,268.8 297.2,270.1 292.0,270.8 286.8,270.8 37.3,254.5 32.1,253.8 27.1,252.4 22.2,250.4 17.7,247.8 13.5,244.6 9.8,240.9 6.7,236.8 4.0,232.2 2.0,227.4 0.7,222.3 0.0,217.2 0.0,211.9 11.4,37.3 12.1,32.1 13.5,27.1 15.5,22.2 18.1,17.7 21.3,13.5 25.0,9.8 29.1,6.7 33.7,4.0 38.5,2.0 43.6,0.7" fill="#cccccc" stroke="#000000" stroke-width="1"/>
<text x="5" y="15" font-size="12">Porte placard MG - 340.7x270.8mm</text>
</svg>