<svg xmlns="http://www.w3.org/2000/svg" width="860.0mm" height="2020.0mm" viewBox="-60 -60 860.0 2020.0">
<polygon points="0.0,0.0 110.0,0.0 97.1,1.7 85.0,6.7 74.6,14.6 66.7,25.0 61.7,37.1 60.0,50.0 61.7,62.9 66.7,75.0 74.6,85.4 85.0,93.3 97.1,98.3 110.0,100.0 690.0,100.0 696.5,100.4 702.9,101.7 709.1,103.8 715.0,106.7 720.4,110.3 725.4,114.6 729.7,119.6 733.3,125.0 736.2,130.9 738.3,137.1 739.6,143.5 740.0,150.0 739.6,156.5 738.3,162.9 736.2,169.1 733.3,175.0 729.7,180.4 725.4,185.4 720.4,189.7 715.0,193.3 709.1,196.2 702.9,198.3 696.5,199.6 690.0,200.0 110.0,200.0 97.1,201.7 85.0,206.7 74.6,214.6 66.7,225.0 61.7,237.1 60.0,250.0 61.7,262.9 66.7,275.0 74.6,285.4 85.0,293.3 97.1,298.3 110.0,300.0 690.0,300.0 702.9,301.7 715.0,306.7 725.4,314.6 733.3,325.0 738.3,337.1 740.0,350.0 738.3,362.9 733.3,375.0 725.4,385.4 715.0,393.3 702.9,398.3 690.0,400.0 110.0,400.0 97.1,401.7 85.0,406.7 74.6,414.6 66.7,425.0 61.7,437.1 60.0,450.0 61.7,462.9 66.7,475.0 74.6,485.4 85.0,493.3 97.1,498.3 110.0,500.0 690.0,500.0 702.9,501.7 715.0,506.7 725.4,514.6 733.3,525.0 738.3,537.1 740.0,550.0 738.3,562.9 733.3,575.0 725.4,585.4 715.0,593.3 702.9,598.3 690.0,600.0 110.0,600.0 97.1,601.7 85.0,606.7 74.6,614.6 66.7,625.0 61.7,637.1 60.0,650.0 61.7,662.9 66.7,675.0 74.6,685.4 85.0,693.3 97.1,698.3 110.0,700.0 690.0,700.0 702.9,701.7 715.0,706.7 725.4,714.6 733.3,725.0 738.3,737.1 740.0,750.0 738.3,762.9 733.3,775.0 725.4,785.4 715.0,793.3 702.9,798.3 690.0,800.0 110.0,800.0 97.1,801.7 85.0,806.7 74.6,814.6 66.7,825.0 61.7,837.1 60.0,850.0 61.7,862.9 66.7,875.0 74.6,885.4 85.0,893.3 97.1,898.3 110.0,900.0 690.0,900.0 702.9,901.7 715.0,906.7 725.4,914.6 733.3,925.0 738.3,937.1 740.0,950.0 738.3,962.9 733.3,975.0 725.4,985.4 715.0,993.3 702.9,998.3 690.0,1000.0 110.0,1000.0 97.1,1001.7 85.0,1006.7 74.6,1014.6 66.7,1025.0 61.7,1037.1 60.0,1050.0 61.7,1062.9 66.7,1075.0 74.6,1085.4 85.0,1093.3 97.1,1098.3 110.0,1100.0 690.0,1100.0 702.9,1101.7 715.0,1106.7 725.4,1114.6 733.3,1125.0 738.3,1137.1 740.0,1150.0 738.3,1162.9 733.3,1175.0 725.4,1185.4 715.0,1193.3 702.9,1198.3 690.0,1200.0 110.0,1200.0 97.1,1201.7 85.0,1206.7 74.6,1214.6 66.7,1225.0 61.7,1237.1 60.0,1250.0 61.7,1262.9 66.7,1275.0 74.6,1285.4 85.0,1293.3 97.1,1298.3 110.0,1300.0 690.0,1300.0 702.9,1301.7 715.0,1306.7 725.4,1314.6 733.3,1325.0 738.3,1337.1 740.0,1350.0 738.3,1362.9 733.3,1375.0 725.4,1385.4 715.0,1393.3 702.9,1398.3 690.0,1400.0 110.0,1400.0 97.1,1401.7 85.0,1406.7 74.6,1414.6 66.7,1425.0 61.7,1437.1 60.0,1450.0 61.7,1462.9 66.7,1475.0 74.6,1485.4 85.0,1493.3 97.1,1498.3 110.0,1500.0 690.0,1500.0 702.9,1501.7 715.0,1506.7 725.4,1514.6 733.3,1525.0 738.3,1537.1 740.0,1550.0 738.3,1562.9 733.3,1575.0 725.4,1585.4 715.0,1593.3 702.9,1598.3 690.0,1600.0 110.0,1600.0 97.1,1601.7 85.0,1606.7 74.6,1614.6 66.7,1625.0 61.7,1637.1 60.0,1650.0 61.7,1662.9 66.7,1675.0 74.6,1685.4 85.0,1693.3 97.1,1698.3 110.0,1700.0 690.0,1700.0 702.9,1701.7 715.0,1706.7 725.4,1714.6 733.3,1725.0 738.3,1737.1 740.0,1750.0 738.3,1762.9 733.3,1775.0 725.4,1785.4 715.0,1793.3 702.9,1798.3 690.0,1800.0 110.0,1800.0 97.1,1801.7 85.0,1806.7 74.6,1814.6 66.7,1825.0 61.7,1837.1 60.0,1850.0 61.7,1862.9 66.7,1875.0 74.6,1885.4 85.0,1893.3 97.1,1898.3 110.0,1900.0 0.0,1900.0" fill="#dddddd" stroke="#000" stroke-width="1.5"/>

    <line x1="0" y1="-40" x2="740.0" y2="-40" stroke="#000" stroke-width="1.2"/>
    <line x1="0" y1="-46" x2="0" y2="-34" stroke="#000" stroke-width="1"/>
    <line x1="740.0" y1="-46" x2="740.0" y2="-34" stroke="#000" stroke-width="1"/>
    <line x1="0" y1="0" x2="0" y2="-40" stroke="#000" stroke-width="0.5" stroke-dasharray="4,3"/>
    <line x1="740.0" y1="0" x2="740.0" y2="-40" stroke="#000" stroke-width="0.5" stroke-dasharray="4,3"/>
    <text x="370.0" y="-48" font-size="16" font-family="Inter,Arial,sans-serif" font-weight="bold" text-anchor="middle" fill="#000">740</text>
    
    <line x1="-50" y1="0" x2="-50" y2="1900.0" stroke="#000" stroke-width="1.2"/>
    <line x1="-56" y1="0" x2="-44" y2="0" stroke="#000" stroke-width="1"/>
    <line x1="-56" y1="1900.0" x2="-44" y2="1900.0" stroke="#000" stroke-width="1"/>
    <line x1="0" y1="0" x2="-50" y2="0" stroke="#000" stroke-width="0.5" stroke-dasharray="4,3"/>
    <line x1="0" y1="1900.0" x2="-50" y2="1900.0" stroke="#000" stroke-width="0.5" stroke-dasharray="4,3"/>
    <text x="-58" y="955.0" font-size="16" font-family="Inter,Arial,sans-serif" font-weight="bold" text-anchor="middle" fill="#000" transform="rotate(-90,-58,955.0)">1900</text>
    <text x="370.0" y="950.0" font-size="14" fill="#666" text-anchor="middle">Découpe depuis gabarit</text></svg>