<svg xmlns="http://www.w3.org/2000/svg" width="500.0mm" height="1070.0mm" viewBox="-60 -60 500.0 1070.0">
<polygon points="0.0,0.0 380.0,0.0 380.0,950.0 0.0,950.0 0.0,900.0 300.0,900.0 305.2,899.7 310.4,898.6 315.3,897.0 320.0,894.6 324.4,891.7 328.3,888.3 331.7,884.4 334.6,880.0 337.0,875.3 338.6,870.4 339.7,865.2 340.0,860.0 340.0,90.0 339.7,84.8 338.6,79.6 336.9,74.7 334.6,70.0 331.7,65.6 328.3,61.7 324.3,58.3 320.0,55.4 315.3,53.0 310.3,51.4 305.2,50.3 300.0,50.0 0.0,50.0" fill="#dddddd" stroke="#000" stroke-width="1.5"/>

    <line x1="0" y1="-35" x2="380" y2="-35" stroke="#000" stroke-width="1.2"/>
    <line x1="0" y1="-41" x2="0" y2="-29" stroke="#000" stroke-width="1"/>
    <line x1="380" y1="-41" x2="380" y2="-29" stroke="#000" stroke-width="1"/>
    <line x1="0" y1="0" x2="0" y2="-35" stroke="#000" stroke-width="0.5" stroke-dasharray="4,3"/>
    <line x1="380" y1="0" x2="380" y2="-35" stroke="#000" stroke-width="0.5" stroke-dasharray="4,3"/>
    <text x="190.0" y="-43" font-size="16" font-family="Inter,Arial,sans-serif" font-weight="bold" text-anchor="middle" fill="#000">380</text>
    
    <line x1="-45" y1="0" x2="-45" y2="950" stroke="#000" stroke-width="1.2"/>
    <line x1="-51" y1="0" x2="-39" y2="0" stroke="#000" stroke-width="1"/>
    <line x1="-51" y1="950" x2="-39" y2="950" stroke="#000" stroke-width="1"/>
    <line x1="0" y1="0" x2="-45" y2="0" stroke="#000" stroke-width="0.5" stroke-dasharray="4,3"/>
    <line x1="0" y1="950" x2="-45" y2="950" stroke="#000" stroke-width="0.5" stroke-dasharray="4,3"/>
    <text x="-53" y="480.0" font-size="16" font-family="Inter,Arial,sans-serif" font-weight="bold" text-anchor="middle" fill="#000" transform="rotate(-90,-53,480.0)">950</text>
    
    <line x1="0" y1="985" x2="300" y2="985" stroke="#000" stroke-width="1.2"/>
    <line x1="0" y1="979" x2="0" y2="991" stroke="#000" stroke-width="1"/>
    <line x1="300" y1="979" x2="300" y2="991" stroke="#000" stroke-width="1"/>
    <line x1="0" y1="950" x2="0" y2="985" stroke="#000" stroke-width="0.5" stroke-dasharray="4,3"/>
    <line x1="300" y1="950" x2="300" y2="985" stroke="#000" stroke-width="0.5" stroke-dasharray="4,3"/>
    <text x="150.0" y="999" font-size="16" font-family="Inter,Arial,sans-serif" font-weight="bold" text-anchor="middle" fill="#000">300</text>
    
    <line x1="410" y1="900" x2="410" y2="950" stroke="#000" stroke-width="1.2"/>
    <line x1="404" y1="900" x2="416" y2="900" stroke="#000" stroke-width="1"/>
    <line x1="404" y1="950" x2="416" y2="950" stroke="#000" stroke-width="1"/>
    <line x1="380" y1="900" x2="410" y2="900" stroke="#000" stroke-width="0.5" stroke-dasharray="4,3"/>
    <line x1="380" y1="950" x2="410" y2="950" stroke="#000" stroke-width="0.5" stroke-dasharray="4,3"/>
    <text x="418" y="930.0" font-size="16" font-family="Inter,Arial,sans-serif" font-weight="bold" text-anchor="middle" fill="#000" transform="rotate(-90,418,930.0)">50</text>
    <text x="340" y="925" font-size="11" fill="#666">R≈40</text></svg>