<svg xmlns="http://www.w3.org/2000/svg" width="500.0mm" height="1070.0mm" viewBox="-60 -60 500.0 1070.0">
<polygon points="0.0,0.0 380.0,0.0 380.0,50.0 80.0,50.0 74.8,50.3 69.7,51.4 64.7,53.0 60.0,55.4 55.7,58.3 51.7,61.7 48.3,65.6 45.4,70.0 43.1,74.7 41.4,79.6 40.3,84.8 40.0,90.0 40.0,860.0 40.3,865.2 41.4,870.4 43.0,875.3 45.4,880.0 48.3,884.4 51.7,888.3 55.6,891.7 60.0,894.6 64.7,897.0 69.6,898.6 74.8,899.7 80.0,900.0 380.0,900.0 380.0,950.0 0.0,950.0" fill="#dddddd" stroke="#000" stroke-width="1.5"/>

    <line x1="0" y1="-55" x2="380" y2="-55" stroke="#000" stroke-width="1.2"/>
    <line x1="0" y1="-61" x2="0" y2="-49" stroke="#000" stroke-width="1"/>
    <line x1="380" y1="-61" x2="380" y2="-49" stroke="#000" stroke-width="1"/>
    <line x1="0" y1="0" x2="0" y2="-55" stroke="#000" stroke-width="0.5" stroke-dasharray="4,3"/>
    <line x1="380" y1="0" x2="380" y2="-55" stroke="#000" stroke-width="0.5" stroke-dasharray="4,3"/>
    <text x="190.0" y="-63" font-size="16" font-family="Inter,Arial,sans-serif" font-weight="bold" text-anchor="middle" fill="#000">380</text>
    
    <line x1="-45" y1="0" x2="-45" y2="950" stroke="#000" stroke-width="1.2"/>
    <line x1="-51" y1="0" x2="-39" y2="0" stroke="#000" stroke-width="1"/>
    <line x1="-51" y1="950" x2="-39" y2="950" stroke="#000" stroke-width="1"/>
    <line x1="0" y1="0" x2="-45" y2="0" stroke="#000" stroke-width="0.5" stroke-dasharray="4,3"/>
    <line x1="0" y1="950" x2="-45" y2="950" stroke="#000" stroke-width="0.5" stroke-dasharray="4,3"/>
    <text x="-53" y="480.0" font-size="16" font-family="Inter,Arial,sans-serif" font-weight="bold" text-anchor="middle" fill="#000" transform="rotate(-90,-53,480.0)">950</text>
    
    <line x1="80" y1="65" x2="380" y2="65" stroke="#000" stroke-width="1.2"/>
    <line x1="80" y1="59" x2="80" y2="71" stroke="#000" stroke-width="1"/>
    <line x1="380" y1="59" x2="380" y2="71" stroke="#000" stroke-width="1"/>
    <line x1="80" y1="50" x2="80" y2="65" stroke="#000" stroke-width="0.5" stroke-dasharray="4,3"/>
    <line x1="380" y1="50" x2="380" y2="65" stroke="#000" stroke-width="0.5" stroke-dasharray="4,3"/>
    <text x="230.0" y="79" font-size="16" font-family="Inter,Arial,sans-serif" font-weight="bold" text-anchor="middle" fill="#000">300</text>
    
    <line x1="-30" y1="0" x2="-30" y2="50" stroke="#000" stroke-width="1.2"/>
    <line x1="-36" y1="0" x2="-24" y2="0" stroke="#000" stroke-width="1"/>
    <line x1="-36" y1="50" x2="-24" y2="50" stroke="#000" stroke-width="1"/>
    <line x1="0" y1="0" x2="-30" y2="0" stroke="#000" stroke-width="0.5" stroke-dasharray="4,3"/>
    <line x1="0" y1="50" x2="-30" y2="50" stroke="#000" stroke-width="0.5" stroke-dasharray="4,3"/>
    <text x="-22" y="30.0" font-size="16" font-family="Inter,Arial,sans-serif" font-weight="bold" text-anchor="middle" fill="#000" transform="rotate(-90,-22,30.0)">50</text>
    <text x="40" y="30" font-size="11" fill="#666">R≈40</text></svg>