<svg xmlns="http://www.w3.org/2000/svg" width="840.4mm" height="1990.0mm" viewBox="-60 -60 840.4 1990.0">
<polygon points="0.0,0.0 720.4,0.0 720.4,870.0 585.0,870.0 585.0,1705.0 720.4,1705.0 720.4,1870.0 0.0,1870.0" fill="#dddddd" stroke="#000" stroke-width="1.5"/>

    <line x1="0" y1="-40" x2="720.4" y2="-40" stroke="#000" stroke-width="1.2"/>
    <line x1="0" y1="-46" x2="0" y2="-34" stroke="#000" stroke-width="1"/>
    <line x1="720.4" y1="-46" x2="720.4" y2="-34" stroke="#000" stroke-width="1"/>
    <line x1="0" y1="0" x2="0" y2="-40" stroke="#000" stroke-width="0.5" stroke-dasharray="4,3"/>
    <line x1="720.4" y1="0" x2="720.4" y2="-40" stroke="#000" stroke-width="0.5" stroke-dasharray="4,3"/>
    <text x="360.2" y="-48" font-size="16" font-family="Inter,Arial,sans-serif" font-weight="bold" text-anchor="middle" fill="#000">720,4</text>
    
    <line x1="-50" y1="0" x2="-50" y2="1870" stroke="#000" stroke-width="1.2"/>
    <line x1="-56" y1="0" x2="-44" y2="0" stroke="#000" stroke-width="1"/>
    <line x1="-56" y1="1870" x2="-44" y2="1870" stroke="#000" stroke-width="1"/>
    <line x1="0" y1="0" x2="-50" y2="0" stroke="#000" stroke-width="0.5" stroke-dasharray="4,3"/>
    <line x1="0" y1="1870" x2="-50" y2="1870" stroke="#000" stroke-width="0.5" stroke-dasharray="4,3"/>
    <text x="-58" y="940.0" font-size="16" font-family="Inter,Arial,sans-serif" font-weight="bold" text-anchor="middle" fill="#000" transform="rotate(-90,-58,940.0)">1870</text>
    
    <line x1="0" y1="1905" x2="585" y2="1905" stroke="#000" stroke-width="1.2"/>
    <line x1="0" y1="1899" x2="0" y2="1911" stroke="#000" stroke-width="1"/>
    <line x1="585" y1="1899" x2="585" y2="1911" stroke="#000" stroke-width="1"/>
    <line x1="0" y1="1870" x2="0" y2="1905" stroke="#000" stroke-width="0.5" stroke-dasharray="4,3"/>
    <line x1="585" y1="1870" x2="585" y2="1905" stroke="#000" stroke-width="0.5" stroke-dasharray="4,3"/>
    <text x="292.5" y="1919" font-size="16" font-family="Inter,Arial,sans-serif" font-weight="bold" text-anchor="middle" fill="#000">585</text>
    
    <line x1="760.4" y1="870" x2="760.4" y2="1705" stroke="#000" stroke-width="1.2"/>
    <line x1="754.4" y1="870" x2="766.4" y2="870" stroke="#000" stroke-width="1"/>
    <line x1="754.4" y1="1705" x2="766.4" y2="1705" stroke="#000" stroke-width="1"/>
    <line x1="720.4" y1="870" x2="760.4" y2="870" stroke="#000" stroke-width="0.5" stroke-dasharray="4,3"/>
    <line x1="720.4" y1="1705" x2="760.4" y2="1705" stroke="#000" stroke-width="0.5" stroke-dasharray="4,3"/>
    <text x="768.4" y="1292.5" font-size="16" font-family="Inter,Arial,sans-serif" font-weight="bold" text-anchor="middle" fill="#000" transform="rotate(-90,768.4,1292.5)">835</text>
    
    <line x1="585" y1="1300" x2="720.4" y2="1300" stroke="#000" stroke-width="1.2"/>
    <line x1="585" y1="1294" x2="585" y2="1306" stroke="#000" stroke-width="1"/>
    <line x1="720.4" y1="1294" x2="720.4" y2="1306" stroke="#000" stroke-width="1"/>
    <line x1="585" y1="1300" x2="585" y2="1300" stroke="#000" stroke-width="0.5" stroke-dasharray="4,3"/>
    <line x1="720.4" y1="1300" x2="720.4" y2="1300" stroke="#000" stroke-width="0.5" stroke-dasharray="4,3"/>
    <text x="652.7" y="1292" font-size="16" font-family="Inter,Arial,sans-serif" font-weight="bold" text-anchor="middle" fill="#000">135,4</text>
    <text x="650" y="860" font-size="12" fill="#666" text-anchor="middle">encoche</text>
    <line x1="560" y1="0" x2="560" y2="870" stroke="#000" stroke-width="1.2"/>
    <line x1="554" y1="0" x2="566" y2="0" stroke="#000" stroke-width="1"/>
    <line x1="554" y1="870" x2="566" y2="870" stroke="#000" stroke-width="1"/>
    <line x1="585" y1="0" x2="560" y2="0" stroke="#000" stroke-width="0.5" stroke-dasharray="4,3"/>
    <line x1="585" y1="870" x2="560" y2="870" stroke="#000" stroke-width="0.5" stroke-dasharray="4,3"/>
    <text x="568" y="440.0" font-size="16" font-family="Inter,Arial,sans-serif" font-weight="bold" text-anchor="middle" fill="#000" transform="rotate(-90,568,440.0)">870</text>
    </svg>