<svg xmlns="http://www.w3.org/2000/svg" width="895.0mm" height="500.0mm" viewBox="-60 -60 895.0 500.0">
<polygon points="0.0,0.0 675.0,0.0 775.0,100.0 775.0,380.0 0.0,380.0" fill="#dddddd" stroke="#000" stroke-width="1.5"/>

    <line x1="0" y1="415" x2="775" y2="415" stroke="#000" stroke-width="1.2"/>
    <line x1="0" y1="409" x2="0" y2="421" stroke="#000" stroke-width="1"/>
    <line x1="775" y1="409" x2="775" y2="421" stroke="#000" stroke-width="1"/>
    <line x1="0" y1="380" x2="0" y2="415" stroke="#000" stroke-width="0.5" stroke-dasharray="4,3"/>
    <line x1="775" y1="380" x2="775" y2="415" stroke="#000" stroke-width="0.5" stroke-dasharray="4,3"/>
    <text x="387.5" y="429" font-size="16" font-family="Inter,Arial,sans-serif" font-weight="bold" text-anchor="middle" fill="#000">775</text>
    
    <line x1="-40" y1="0" x2="-40" y2="380" stroke="#000" stroke-width="1.2"/>
    <line x1="-46" y1="0" x2="-34" y2="0" stroke="#000" stroke-width="1"/>
    <line x1="-46" y1="380" x2="-34" y2="380" stroke="#000" stroke-width="1"/>
    <line x1="0" y1="0" x2="-40" y2="0" stroke="#000" stroke-width="0.5" stroke-dasharray="4,3"/>
    <line x1="0" y1="380" x2="-40" y2="380" stroke="#000" stroke-width="0.5" stroke-dasharray="4,3"/>
    <text x="-48" y="195.0" font-size="16" font-family="Inter,Arial,sans-serif" font-weight="bold" text-anchor="middle" fill="#000" transform="rotate(-90,-48,195.0)">380</text>
    
    <line x1="0" y1="-35" x2="675" y2="-35" stroke="#000" stroke-width="1.2"/>
    <line x1="0" y1="-41" x2="0" y2="-29" stroke="#000" stroke-width="1"/>
    <line x1="675" y1="-41" x2="675" y2="-29" stroke="#000" stroke-width="1"/>
    <line x1="0" y1="0" x2="0" y2="-35" stroke="#000" stroke-width="0.5" stroke-dasharray="4,3"/>
    <line x1="675" y1="0" x2="675" y2="-35" stroke="#000" stroke-width="0.5" stroke-dasharray="4,3"/>
    <text x="337.5" y="-43" font-size="16" font-family="Inter,Arial,sans-serif" font-weight="bold" text-anchor="middle" fill="#000">675</text>
    
    <line x1="675" y1="120" x2="775" y2="120" stroke="#000" stroke-width="1.2"/>
    <line x1="675" y1="114" x2="675" y2="126" stroke="#000" stroke-width="1"/>
    <line x1="775" y1="114" x2="775" y2="126" stroke="#000" stroke-width="1"/>
    <line x1="675" y1="100" x2="675" y2="120" stroke="#000" stroke-width="0.5" stroke-dasharray="4,3"/>
    <line x1="775" y1="100" x2="775" y2="120" stroke="#000" stroke-width="0.5" stroke-dasharray="4,3"/>
    <text x="725.0" y="134" font-size="16" font-family="Inter,Arial,sans-serif" font-weight="bold" text-anchor="middle" fill="#000">100</text>
    
    <line x1="805" y1="0" x2="805" y2="100" stroke="#000" stroke-width="1.2"/>
    <line x1="799" y1="0" x2="811" y2="0" stroke="#000" stroke-width="1"/>
    <line x1="799" y1="100" x2="811" y2="100" stroke="#000" stroke-width="1"/>
    <line x1="775" y1="0" x2="805" y2="0" stroke="#000" stroke-width="0.5" stroke-dasharray="4,3"/>
    <line x1="775" y1="100" x2="805" y2="100" stroke="#000" stroke-width="0.5" stroke-dasharray="4,3"/>
    <text x="813" y="55.0" font-size="16" font-family="Inter,Arial,sans-serif" font-weight="bold" text-anchor="middle" fill="#000" transform="rotate(-90,813,55.0)">100</text>
    <text x="720" y="45" font-size="11" fill="#666">chanfrein</text></svg>