<svg xmlns="http://www.w3.org/2000/svg" width="1380.1mm" height="1656.0mm" viewBox="0 0 1380.1 1656.0">
<polygon points="140.0,0.0 1380.0,0.0 1380.0,200.0 1380.1,200.0 1380.1,1450.0 1380.0,1450.0 1380.0,1650.0 960.0,1650.0 960.0,1496.0 959.4,1486.9 957.6,1477.9 954.7,1469.2 950.6,1461.0 945.5,1453.4 939.5,1446.5 932.6,1440.5 925.0,1435.4 916.8,1431.3 908.1,1428.4 899.1,1426.6 890.0,1426.0 270.0,1426.0 260.9,1426.6 251.9,1428.4 243.2,1431.3 235.0,1435.4 227.4,1440.5 220.5,1446.5 214.5,1453.4 209.4,1461.0 205.3,1469.2 202.4,1477.9 200.6,1486.9 200.0,1496.0 200.0,1656.0 140.0,1656.0 0.0,1456.0 0.0,210.0" fill="#cccccc" stroke="#000000" stroke-width="1"/>
<text x="5" y="15" font-size="12">Sol partie latérale - 1380.1x1656.0mm</text>
</svg>