<svg xmlns="http://www.w3.org/2000/svg" width="2520.1mm" height="1656.0mm" viewBox="0 0 2520.1 1656.0">
<polygon points="270.0,230.0 890.0,230.0 899.1,229.4 908.1,227.6 916.8,224.7 925.0,220.6 932.6,215.5 939.5,209.5 945.5,202.6 950.6,195.0 954.7,186.8 957.6,178.1 959.4,169.1 960.0,160.0 960.0,6.0 1380.0,6.0 1380.0,206.0 2227.0,206.0 2227.0,6.0 2437.0,6.0 2437.0,135.0 2520.1,135.0 2520.1,1527.0 2370.1,1527.0 2370.1,1656.0 2227.0,1656.0 2227.0,1456.0 1380.0,1456.0 1380.0,1656.0 140.0,1656.0 0.0,1446.0 0.0,200.0 140.0,0.0 200.0,0.0 200.0,160.0 200.6,169.1 202.4,178.1 205.3,186.8 209.4,195.0 214.5,202.6 220.5,209.5 227.4,215.5 235.0,220.6 243.2,224.7 251.9,227.6 260.9,229.4" fill="#cccccc" stroke="#000000" stroke-width="1"/>
<text x="5" y="15" font-size="12">Moquette - 2520.1x1656.0mm</text>
</svg>